<svg id="Layer_1" data-name="Layer 1" xmlns="http://www.w3.org/2000/svg" viewBox="0 0 40.93 40.93"><defs><style>.cls-1{fill:#231f20;}.cls-2{fill:none;stroke:#231f20;stroke-miterlimit:10;}</style></defs><title>iconos</title><path class="cls-1" d="M8.24,28.48c2.46-.19,4.89-.37,7-2.23a5.42,5.42,0,0,1-4.65-3.58h2l.05-.17a5.25,5.25,0,0,1-3.73-4.84l2.16.57.13-.17c-2.24-1.84-3-4-1.58-6.79a17.7,17.7,0,0,0,4.71,3.82,11.19,11.19,0,0,0,5.8,1.45,11.58,11.58,0,0,1,0-1.87,5.21,5.21,0,0,1,8.5-3,1,1,0,0,0,1.16.17c.75-.35,1.52-.67,2.35-1a7.56,7.56,0,0,1-1.8,2.72l2.31-.6A4.86,4.86,0,0,1,30.8,15a.75.75,0,0,0-.43.78c.29,9-7,14.9-14.79,14.75A15.07,15.07,0,0,1,8.24,28.48Z"/><circle class="cls-2" cx="20.46" cy="20.46" r="19.96"/></svg>