<svg id="Layer_1" data-name="Layer 1" xmlns="http://www.w3.org/2000/svg" viewBox="0 0 40.93 40.93"><defs><style>.cls-1{fill:#231f20;}.cls-2{fill:none;stroke:#231f20;stroke-miterlimit:10;}</style></defs><title>iconos</title><path class="cls-1" d="M20.47,33.21h-5.6A6.89,6.89,0,0,1,7.72,26c0-3.8,0-7.6,0-11.4a6.87,6.87,0,0,1,6.86-6.87H26.24a6.9,6.9,0,0,1,7,6.9q.06,5.82,0,11.66a6.88,6.88,0,0,1-7,6.92C24.33,33.23,22.4,33.21,20.47,33.21Zm0-2.25H26A4.69,4.69,0,0,0,31,26V14.89A4.7,4.7,0,0,0,26.06,10H14.93a4.72,4.72,0,0,0-5,4.95q0,5.55,0,11.12A4.71,4.71,0,0,0,14.89,31Z"/><path class="cls-1" d="M20.51,27.43a7,7,0,0,1,0-13.91,7,7,0,1,1,0,13.91Zm4.52-7a4.56,4.56,0,1,0-4.54,4.6A4.58,4.58,0,0,0,25,20.47Z"/><path class="cls-1" d="M27.29,15.14a1.48,1.48,0,1,1,0-3,1.48,1.48,0,1,1,0,3Z"/><circle class="cls-2" cx="20.46" cy="20.46" r="19.96"/></svg>