<svg id="Layer_1" data-name="Layer 1" xmlns="http://www.w3.org/2000/svg" viewBox="0 0 40.93 40.93"><defs><style>.cls-1{fill:#231f20;}.cls-2{fill:none;stroke:#231f20;stroke-miterlimit:10;}</style></defs><title>iconos</title><path class="cls-1" d="M23,22V34.52H17.55V22H13V16.91h4.54c0-1.14,0-2.21,0-3.27a13.71,13.71,0,0,1,.31-2.87A5.56,5.56,0,0,1,24,6.43c1.29.09,2.58.12,3.92.17v4.25c-.66,0-1.31,0-2,0a5.73,5.73,0,0,0-1.6.29A1.88,1.88,0,0,0,23,12.85c-.06,1.31,0,2.63,0,4h4.82L27,22Z"/><circle class="cls-2" cx="20.46" cy="20.46" r="19.96"/></svg>