<svg id="Layer_1" data-name="Layer 1" xmlns="http://www.w3.org/2000/svg" viewBox="0 0 330.86 103.36"><defs><style>.cls-1{fill:#33a4fe;}.cls-2{font-size:25.73px;fill:#fff;font-family:Montserrat-Bold, Montserrat;font-weight:700;}.cls-3{letter-spacing:-0.01em;}.cls-4{letter-spacing:-0.07em;}.cls-5{font-size:60.16px;fill:#231f20;font-family:Montserrat-Regular, Montserrat;}.cls-6{letter-spacing:0em;}.cls-7{letter-spacing:0em;}</style></defs><title>logoLinguini</title><path class="cls-1" d="M78.19,33c0,20.68,1.29,60.17-30.45,53.89C28.54,83.05,1.5,63.27,7.33,43.42,13.57,22.2,8.91-8.06,42.76,6,60.84,13.46,78.19,12.26,78.19,33Z"/><rect class="cls-1" x="213.21" y="74.86" width="115.13" height="24.77" rx="9.04" ry="9.04"/><text class="cls-2" transform="translate(218.11 96.52)">SU<tspan class="cls-3" x="36.69" y="0">PP</tspan><tspan class="cls-4" x="73.85" y="0">L</tspan><tspan x="87.54" y="0">Y</tspan></text><text class="cls-5" transform="translate(83.55 63.45)">Li<tspan class="cls-6" x="51.62" y="0">n</tspan><tspan class="cls-7" x="92.46" y="0">guini</tspan></text><path d="M61,78.36a5.92,5.92,0,0,0-1.85.11C50.51,82,41.68,83.24,32.51,81a28.4,28.4,0,0,1-22-24.28C8,37.39,15.32,21.81,29.3,8.89c.64-.59,1.34-1.12,2-1.68l2-1.64c-17,3.13-29.43,15-31.87,30.92C-1.47,55.64,10.34,77,28.17,84a29.92,29.92,0,0,0,26.41-1.62,11.58,11.58,0,0,1,1.65-.6,25.45,25.45,0,0,1-12.79,4.84c-13.27,1.52-23.83-3.85-32.13-13.71C2.46,62.35-1.48,50,.5,36.27c2.13-14.71,11.29-24,24.8-29.2C28.09,6,31.11,5.49,34,4.54c3.11-1,6.15-2.29,9.24-3.42C44.37.7,45.56.37,46.74,0l.17.48L40.24,3.24c8.06-.35,15.83.36,23.22,3.46C81.9,14.44,90,33.28,83.09,52.61c-3.45,9.67-9.31,17.51-18.22,22.89C63.5,76.33,62.27,77.4,61,78.36Zm-49-29.18c.21,2.29.27,4.38.6,6.43,1.57,9.9,6,17.94,15.36,22.46a31.77,31.77,0,0,0,14.7,2.86,47.28,47.28,0,0,0,14.58-2.79,35.13,35.13,0,0,0,12.36-7.67c8.06-7.56,13.11-16.93,13.9-28.07.85-12-2.89-22.48-12.86-29.93C61.62,5.77,51.24,3.7,40.28,4.35a11.65,11.65,0,0,0-5.73,2.1C19.72,16.88,12.92,31.59,11.93,49.18Z"/><path d="M31.24,59a3.82,3.82,0,0,1-.48-1.19q0-5.82.18-11.62c0-.44.26-.87.3-1.28-.59-2.07-.11-4.24-.33-6.27a25.14,25.14,0,0,1-3.22-1.52c-4.63-3.06-4.93-8.78-.69-12.33a10.44,10.44,0,0,1,9.71-1.57,13.76,13.76,0,0,1,18.77-.36,1.39,1.39,0,0,0,1.1.16c3.67-1,7.1-.84,10.06,1.91,3.84,3.56,3.29,8.78-.77,11.86a24.7,24.7,0,0,1-3.56,1.84c0,3.32,0,6.91,0,10.5s0,7.28-.13,10.91C62.07,62.27,61,64.42,58.66,65a28.58,28.58,0,0,1-6.14,1c-4.69.08-9.4-.06-14.1-.2a9.54,9.54,0,0,1-6-1.82,4.3,4.3,0,0,1-1.63-3.74A4.45,4.45,0,0,1,31.24,59Zm24.38,4.87c3.32-.13,4.79-1.48,4.8-4.3,0-7.27,0-14.55-.08-21.82,0-1,.36-1.29,1.27-1.46a7.81,7.81,0,0,0,2.53-.9c2.38-1.39,3.57-4.47,2.72-6.6-1.59-4-7.4-5.41-10.51-3.16-.73.53-1.23.3-1.74-.43a6.5,6.5,0,0,0-1.85-1.88,13.71,13.71,0,0,0-3.36-1.45,12.45,12.45,0,0,0-8.13.25c-1.39.54-2.78,1.17-3.12,2.93a.8.8,0,0,1-1.31.49,7.61,7.61,0,0,0-6.48-.6c-2.47.69-4.77,3.55-4.62,5.84a6.47,6.47,0,0,0,5.53,5.78c1.28.09,1.59.57,1.59,1.75,0,7.2,0,14.4,0,21.59,0,2.21,1.14,3.31,3.51,3.41v-.94c-.06-3.2-.11-6.4-.17-9.6,0-.79.29-1.32,1.16-1.3s1,.57,1,1.29c0,1.3,0,2.6,0,3.91v7l6.35.46c0-.65.09-1.15.08-1.65,0-3.24-.07-6.48-.1-9.72,0-.71.09-1.42,1-1.44s1,.67,1,1.39c0,1.23,0,2.45,0,3.68V64.2H54c0-1.74,0-3.47,0-5.2s-.16-3.39-.26-5.09c0-.66-.13-1.33.77-1.44s.92.55,1,1.15a7.56,7.56,0,0,1,.14,1.05C55.63,57.71,55.62,60.75,55.62,63.87Z"/><path d="M49.4,37.34c2.78.73,5.18.57,7-2.11l.44,1.28h.25l.14-1.17a1.2,1.2,0,0,1,.29,1.86c-1.6,2.22-3.9,2.7-6.41,2.36A20.26,20.26,0,0,1,48,38.48a3.13,3.13,0,0,0-1.33-.09C43.33,38.83,40,39,37,37a6.35,6.35,0,0,1-2.83-3.94c-.18-.72-.07-1.39.75-1.62s1.16.32,1.37,1.06c.74,2.64,2.92,4.06,6.25,4.29,2.22.15,4.33.06,6.19-1.39a1,1,0,0,1,.93.08,1.15,1.15,0,0,1,.29.91C49.91,36.68,49.65,36.93,49.4,37.34Z"/></svg>